
<svg version="1.1" xmlns="http://www.w3.org/2000/svg" x="0px" y="0px" viewBox="0 0 1000 1000" ">
<g>
<path d="M990,220c0,38.6-31.4,70-70,70H80c-38.6,0-70-31.4-70-70l0,0c0-38.6,31.4-70,70-70h840C958.6,150,990,181.4,990,220L990,220z"/>
<path d="M710,500c0,38.6-31.4,70-70,70H80c-38.6,0-70-31.4-70-70l0,0c0-38.6,31.4-70,70-70h560C678.6,430,710,461.4,710,500L710,500z"/>
<path d="M500,780c0,38.6-31.4,70-70,70H80c-38.6,0-70-31.4-70-70l0,0c0-38.6,31.4-70,70-70h350C468.6,710,500,741.4,500,780L500,780z"/>
</g>
</svg>